<?xml version="1.0" encoding="UTF-8"?><svg id="Layer_2" xmlns="http://www.w3.org/2000/svg" xmlns:xlink="http://www.w3.org/1999/xlink" viewBox="0 0 625.64 159.23"><defs><radialGradient id="radial-gradient" cx="91.99" cy="28.1" fx="91.99" fy="28.1" r="72.72" gradientTransform="translate(-37.91 38.51)" gradientUnits="userSpaceOnUse"><stop offset="0" stop-color="#faff94"/><stop offset=".44" stop-color="#f9fe95"/><stop offset=".6" stop-color="#f9fd9c"/><stop offset=".71" stop-color="#f8fca8"/><stop offset=".8" stop-color="#f6f9b9"/><stop offset=".88" stop-color="#f4f6cf"/><stop offset=".95" stop-color="#f2f3e9"/><stop offset=".97" stop-color="#f2f2f2"/></radialGradient></defs><g id="Layer_1-2"><path d="M117.23,132.37l-5.87,15.76h-11.2l29.24-76.09h12.61l29.35,76.09h-10.98l-5.98-15.76h-37.17Zm33.91-8.8l-15.43-41.09-15.22,41.09h30.65Z" stroke="#000" stroke-width="1.3"/><path d="M199.09,92.58c4.89,0,12.17,1.2,19.46,6.63l-5,7.17c-5.76-4.35-12.61-4.46-14.02-4.46-11.74,0-20.43,7.83-20.43,19.02s8.69,19.02,20.43,19.02c1.41,0,8.26-.11,14.02-4.46l5,7.17c-7.28,5.44-14.57,6.63-19.46,6.63-19.24,0-30.54-12.28-30.54-27.72s10.76-29.02,30.54-29.02Z" stroke="#000" stroke-width="1.3"/><path d="M244.43,92.58c7.28,0,14.46,2.5,19.67,9.89v-8.7h10.54v54.35h-10.54v-8.69c-5.22,7.39-12.39,9.89-19.67,9.89-16.3,0-26.95-12.83-26.95-28.37s10.65-28.37,26.95-28.37Zm1.31,9.35c-11.3,0-17.72,8.7-17.72,19.02s6.41,19.02,17.72,19.02,18.48-8.04,18.58-19.02c-.11-10.98-7.61-19.02-18.58-19.02Z" stroke="#000" stroke-width="1.3"/><path d="M307.05,92.58c7.28,0,14.46,2.5,19.67,9.89l.22-19.87,10.33,.18v60.47c0,2.7-2.18,4.88-4.88,4.88h-5.66v-8.69c-5.22,7.39-12.39,9.89-19.67,9.89-16.3,0-26.95-12.83-26.95-28.37s10.65-28.37,26.95-28.37Zm1.31,9.35c-11.3,0-17.72,8.7-17.72,19.02s6.41,19.02,17.72,19.02,18.48-8.04,18.58-19.02c-.11-10.98-7.61-19.02-18.58-19.02Z" stroke="#000" stroke-width="1.3"/><path d="M396.95,139.21c-6.96,7.83-15.76,10.11-23.8,10.11-18.91,0-30.65-12.72-30.65-28.15s12.39-28.59,29.24-28.59c14.35,0,27.72,9.24,27.72,29.35h-46.41c-.33,10.55,8.15,18.04,20.22,18.04,6.52,0,12.39-2.17,17.83-6.85l5.87,6.09Zm-42.93-25.43h34.56c-2.94-9.89-10.65-11.96-16.63-11.96-6.41,0-14.35,2.5-17.93,11.96Z" stroke="#000" stroke-linejoin="round" stroke-width="1.3"/><path d="M434.14,149.32c-7.28,0-14.46-2.5-19.67-9.89v8.69h-5.96c-2.53,0-4.58-2.05-4.58-4.58v-60.94h10.33l.22,19.87c5.22-7.39,12.39-9.89,19.67-9.89,16.3,0,26.96,12.83,26.96,28.37s-10.65,28.37-26.96,28.37Zm-1.31-9.35c11.3,0,17.72-8.7,17.72-19.02s-6.41-19.02-17.72-19.02-18.48,8.04-18.58,19.02c.11,10.98,7.61,19.02,18.58,19.02Z" stroke="#000" stroke-width="1.3"/><path d="M517.86,139.21c-6.96,7.83-15.76,10.11-23.8,10.11-18.91,0-30.65-12.72-30.65-28.15s12.39-28.59,29.24-28.59c14.35,0,27.71,9.24,27.71,29.35h-46.41c-.33,10.55,8.15,18.04,20.21,18.04,6.52,0,12.39-2.17,17.83-6.85l5.87,6.09Zm-42.93-25.43h34.56c-2.93-9.89-10.65-11.96-16.63-11.96-6.41,0-14.35,2.5-17.93,11.96Z" stroke="#000" stroke-linejoin="round" stroke-width="1.3"/><path d="M549.76,92.58c7.28,0,14.46,2.5,19.67,9.89v-8.7h10.54v54.35h-10.54v-8.69c-5.22,7.39-12.39,9.89-19.67,9.89-16.3,0-26.95-12.83-26.95-28.37s10.65-28.37,26.95-28.37Zm1.31,9.35c-11.3,0-17.72,8.7-17.72,19.02s6.41,19.02,17.72,19.02,18.48-8.04,18.58-19.02c-.11-10.98-7.61-19.02-18.58-19.02Z" stroke="#000" stroke-width="1.3"/><path d="M624.99,133.99c0,7.72-5.54,15.34-16.09,15.34-8.59,0-16.96-4.46-16.96-18.37v-28.91h-8.91v-8.26h8.91l2.4-15.65h8.15v15.65h17.28v8.26h-17.28v29.67c0,5.98,2.93,8.37,6.52,8.37,3.37,0,6.63-1.96,6.63-5.98" stroke="#000" stroke-width="1.3"/><path d="M414.24,82.95h-10.33c0-18.26-14.68-32.74-32.95-32.74s-33.71,14.65-33.71,32.91l-10.33-.18c0-24.38,19.65-42.92,44.03-42.92s43.27,18.54,43.27,42.92Z" stroke="#000" stroke-linecap="square" stroke-linejoin="bevel" stroke-width="1.3"/><path d="M106.06,51.04c.91,15.93-5.36,30.43-15.86,40.56-10.34,9.97-16.05,23.79-16.05,38.15v1.48H34v-1.47c0-14.65-6.26-28.41-16.65-38.74C7.87,81.57,2,68.51,2,54.08,2,24.27,27.04,.3,57.27,2.09c26.09,1.55,47.3,22.85,48.79,48.94Z" fill="url(#radial-gradient)" stroke="#000" stroke-linecap="round" stroke-linejoin="round" stroke-width="4"/><line x1="36.31" y1="138.47" x2="71.84" y2="138.47" fill="none" stroke="#000" stroke-linecap="round" stroke-linejoin="round" stroke-width="4"/><path d="M36.31,147.11c0,5.59,7.95,10.12,17.77,10.12s17.77-4.53,17.77-10.12" fill="#ccc" stroke="#000" stroke-linecap="round" stroke-linejoin="round" stroke-width="4"/><line x1="36.31" y1="145.71" x2="71.84" y2="145.71" fill="none" stroke="#000" stroke-linecap="round" stroke-linejoin="round" stroke-width="4"/><polyline points="19.69 61.66 22.94 61.66 29.47 64.37 33.92 56.26 38.07 68.34 42.81 34.63 47.85 83.25 52.3 44.85 56.74 71.27 61.48 54.76 66.23 65.57 70.75 56.86 74.82 63.77 79.86 59.11 84.11 61.36 88.45 61.06" fill="none" stroke="#000" stroke-linejoin="round" stroke-width="2"/></g></svg>